<svg xmlns="http://www.w3.org/2000/svg" width="774" height="202" viewBox="0 0 774 202">
<rect width="774" height="202" fill="#0d1117"/>
<defs>
<clipPath id="bulletclip"><rect width="774" height="202"/></clipPath>
<symbol id="a1" viewBox="0 0 11 8" preserveAspectRatio="xMidYMid meet"><rect x="2" y="0" width="1" height="1" fill="currentColor"/><rect x="8" y="0" width="1" height="1" fill="currentColor"/><rect x="3" y="1" width="1" height="1" fill="currentColor"/><rect x="7" y="1" width="1" height="1" fill="currentColor"/><rect x="1" y="2" width="1" height="1" fill="currentColor"/><rect x="2" y="2" width="1" height="1" fill="currentColor"/><rect x="3" y="2" width="1" height="1" fill="currentColor"/><rect x="4" y="2" width="1" height="1" fill="currentColor"/><rect x="5" y="2" width="1" height="1" fill="currentColor"/><rect x="6" y="2" width="1" height="1" fill="currentColor"/><rect x="7" y="2" width="1" height="1" fill="currentColor"/><rect x="8" y="2" width="1" height="1" fill="currentColor"/><rect x="9" y="2" width="1" height="1" fill="currentColor"/><rect x="0" y="3" width="1" height="1" fill="currentColor"/><rect x="1" y="3" width="1" height="1" fill="currentColor"/><rect x="3" y="3" width="1" height="1" fill="currentColor"/><rect x="4" y="3" width="1" height="1" fill="currentColor"/><rect x="5" y="3" width="1" height="1" fill="currentColor"/><rect x="6" y="3" width="1" height="1" fill="currentColor"/><rect x="7" y="3" width="1" height="1" fill="currentColor"/><rect x="9" y="3" width="1" height="1" fill="currentColor"/><rect x="10" y="3" width="1" height="1" fill="currentColor"/><rect x="0" y="4" width="1" height="1" fill="currentColor"/><rect x="1" y="4" width="1" height="1" fill="currentColor"/><rect x="2" y="4" width="1" height="1" fill="currentColor"/><rect x="3" y="4" width="1" height="1" fill="currentColor"/><rect x="4" y="4" width="1" height="1" fill="currentColor"/><rect x="5" y="4" width="1" height="1" fill="currentColor"/><rect x="6" y="4" width="1" height="1" fill="currentColor"/><rect x="7" y="4" width="1" height="1" fill="currentColor"/><rect x="8" y="4" width="1" height="1" fill="currentColor"/><rect x="9" y="4" width="1" height="1" fill="currentColor"/><rect x="10" y="4" width="1" height="1" fill="currentColor"/><rect x="1" y="5" width="1" height="1" fill="currentColor"/><rect x="3" y="5" width="1" height="1" fill="currentColor"/><rect x="5" y="5" width="1" height="1" fill="currentColor"/><rect x="7" y="5" width="1" height="1" fill="currentColor"/><rect x="9" y="5" width="1" height="1" fill="currentColor"/><rect x="0" y="6" width="1" height="1" fill="currentColor"/><rect x="4" y="6" width="1" height="1" fill="currentColor"/><rect x="6" y="6" width="1" height="1" fill="currentColor"/><rect x="10" y="6" width="1" height="1" fill="currentColor"/></symbol>
<symbol id="a2" viewBox="0 0 11 8" preserveAspectRatio="xMidYMid meet"><rect x="1" y="0" width="1" height="1" fill="currentColor"/><rect x="9" y="0" width="1" height="1" fill="currentColor"/><rect x="2" y="1" width="1" height="1" fill="currentColor"/><rect x="4" y="1" width="1" height="1" fill="currentColor"/><rect x="5" y="1" width="1" height="1" fill="currentColor"/><rect x="6" y="1" width="1" height="1" fill="currentColor"/><rect x="8" y="1" width="1" height="1" fill="currentColor"/><rect x="1" y="2" width="1" height="1" fill="currentColor"/><rect x="2" y="2" width="1" height="1" fill="currentColor"/><rect x="3" y="2" width="1" height="1" fill="currentColor"/><rect x="4" y="2" width="1" height="1" fill="currentColor"/><rect x="5" y="2" width="1" height="1" fill="currentColor"/><rect x="6" y="2" width="1" height="1" fill="currentColor"/><rect x="7" y="2" width="1" height="1" fill="currentColor"/><rect x="8" y="2" width="1" height="1" fill="currentColor"/><rect x="9" y="2" width="1" height="1" fill="currentColor"/><rect x="0" y="3" width="1" height="1" fill="currentColor"/><rect x="1" y="3" width="1" height="1" fill="currentColor"/><rect x="3" y="3" width="1" height="1" fill="currentColor"/><rect x="5" y="3" width="1" height="1" fill="currentColor"/><rect x="7" y="3" width="1" height="1" fill="currentColor"/><rect x="9" y="3" width="1" height="1" fill="currentColor"/><rect x="10" y="3" width="1" height="1" fill="currentColor"/><rect x="0" y="4" width="1" height="1" fill="currentColor"/><rect x="1" y="4" width="1" height="1" fill="currentColor"/><rect x="2" y="4" width="1" height="1" fill="currentColor"/><rect x="3" y="4" width="1" height="1" fill="currentColor"/><rect x="4" y="4" width="1" height="1" fill="currentColor"/><rect x="5" y="4" width="1" height="1" fill="currentColor"/><rect x="6" y="4" width="1" height="1" fill="currentColor"/><rect x="7" y="4" width="1" height="1" fill="currentColor"/><rect x="8" y="4" width="1" height="1" fill="currentColor"/><rect x="9" y="4" width="1" height="1" fill="currentColor"/><rect x="10" y="4" width="1" height="1" fill="currentColor"/><rect x="0" y="5" width="1" height="1" fill="currentColor"/><rect x="2" y="5" width="1" height="1" fill="currentColor"/><rect x="3" y="5" width="1" height="1" fill="currentColor"/><rect x="5" y="5" width="1" height="1" fill="currentColor"/><rect x="7" y="5" width="1" height="1" fill="currentColor"/><rect x="8" y="5" width="1" height="1" fill="currentColor"/><rect x="10" y="5" width="1" height="1" fill="currentColor"/><rect x="0" y="6" width="1" height="1" fill="currentColor"/><rect x="10" y="6" width="1" height="1" fill="currentColor"/></symbol>
<symbol id="a3" viewBox="0 0 11 8" preserveAspectRatio="xMidYMid meet"><rect x="2" y="0" width="1" height="1" fill="currentColor"/><rect x="3" y="0" width="1" height="1" fill="currentColor"/><rect x="4" y="0" width="1" height="1" fill="currentColor"/><rect x="5" y="0" width="1" height="1" fill="currentColor"/><rect x="6" y="0" width="1" height="1" fill="currentColor"/><rect x="7" y="0" width="1" height="1" fill="currentColor"/><rect x="8" y="0" width="1" height="1" fill="currentColor"/><rect x="1" y="1" width="1" height="1" fill="currentColor"/><rect x="2" y="1" width="1" height="1" fill="currentColor"/><rect x="3" y="1" width="1" height="1" fill="currentColor"/><rect x="4" y="1" width="1" height="1" fill="currentColor"/><rect x="5" y="1" width="1" height="1" fill="currentColor"/><rect x="6" y="1" width="1" height="1" fill="currentColor"/><rect x="7" y="1" width="1" height="1" fill="currentColor"/><rect x="8" y="1" width="1" height="1" fill="currentColor"/><rect x="9" y="1" width="1" height="1" fill="currentColor"/><rect x="0" y="2" width="1" height="1" fill="currentColor"/><rect x="1" y="2" width="1" height="1" fill="currentColor"/><rect x="3" y="2" width="1" height="1" fill="currentColor"/><rect x="5" y="2" width="1" height="1" fill="currentColor"/><rect x="7" y="2" width="1" height="1" fill="currentColor"/><rect x="9" y="2" width="1" height="1" fill="currentColor"/><rect x="10" y="2" width="1" height="1" fill="currentColor"/><rect x="0" y="3" width="1" height="1" fill="currentColor"/><rect x="1" y="3" width="1" height="1" fill="currentColor"/><rect x="2" y="3" width="1" height="1" fill="currentColor"/><rect x="3" y="3" width="1" height="1" fill="currentColor"/><rect x="4" y="3" width="1" height="1" fill="currentColor"/><rect x="5" y="3" width="1" height="1" fill="currentColor"/><rect x="6" y="3" width="1" height="1" fill="currentColor"/><rect x="7" y="3" width="1" height="1" fill="currentColor"/><rect x="8" y="3" width="1" height="1" fill="currentColor"/><rect x="9" y="3" width="1" height="1" fill="currentColor"/><rect x="10" y="3" width="1" height="1" fill="currentColor"/><rect x="1" y="4" width="1" height="1" fill="currentColor"/><rect x="2" y="4" width="1" height="1" fill="currentColor"/><rect x="4" y="4" width="1" height="1" fill="currentColor"/><rect x="5" y="4" width="1" height="1" fill="currentColor"/><rect x="6" y="4" width="1" height="1" fill="currentColor"/><rect x="8" y="4" width="1" height="1" fill="currentColor"/><rect x="9" y="4" width="1" height="1" fill="currentColor"/><rect x="2" y="5" width="1" height="1" fill="currentColor"/><rect x="5" y="5" width="1" height="1" fill="currentColor"/><rect x="8" y="5" width="1" height="1" fill="currentColor"/><rect x="1" y="6" width="1" height="1" fill="currentColor"/><rect x="9" y="6" width="1" height="1" fill="currentColor"/></symbol>
<symbol id="a4" viewBox="0 0 11 8" preserveAspectRatio="xMidYMid meet"><rect x="0" y="0" width="1" height="1" fill="currentColor"/><rect x="3" y="0" width="1" height="1" fill="currentColor"/><rect x="7" y="0" width="1" height="1" fill="currentColor"/><rect x="10" y="0" width="1" height="1" fill="currentColor"/><rect x="1" y="1" width="1" height="1" fill="currentColor"/><rect x="4" y="1" width="1" height="1" fill="currentColor"/><rect x="6" y="1" width="1" height="1" fill="currentColor"/><rect x="9" y="1" width="1" height="1" fill="currentColor"/><rect x="2" y="2" width="1" height="1" fill="currentColor"/><rect x="3" y="2" width="1" height="1" fill="currentColor"/><rect x="4" y="2" width="1" height="1" fill="currentColor"/><rect x="5" y="2" width="1" height="1" fill="currentColor"/><rect x="6" y="2" width="1" height="1" fill="currentColor"/><rect x="7" y="2" width="1" height="1" fill="currentColor"/><rect x="8" y="2" width="1" height="1" fill="currentColor"/><rect x="0" y="3" width="1" height="1" fill="currentColor"/><rect x="1" y="3" width="1" height="1" fill="currentColor"/><rect x="2" y="3" width="1" height="1" fill="currentColor"/><rect x="4" y="3" width="1" height="1" fill="currentColor"/><rect x="5" y="3" width="1" height="1" fill="currentColor"/><rect x="6" y="3" width="1" height="1" fill="currentColor"/><rect x="8" y="3" width="1" height="1" fill="currentColor"/><rect x="9" y="3" width="1" height="1" fill="currentColor"/><rect x="10" y="3" width="1" height="1" fill="currentColor"/><rect x="0" y="4" width="1" height="1" fill="currentColor"/><rect x="1" y="4" width="1" height="1" fill="currentColor"/><rect x="2" y="4" width="1" height="1" fill="currentColor"/><rect x="3" y="4" width="1" height="1" fill="currentColor"/><rect x="4" y="4" width="1" height="1" fill="currentColor"/><rect x="5" y="4" width="1" height="1" fill="currentColor"/><rect x="6" y="4" width="1" height="1" fill="currentColor"/><rect x="7" y="4" width="1" height="1" fill="currentColor"/><rect x="8" y="4" width="1" height="1" fill="currentColor"/><rect x="9" y="4" width="1" height="1" fill="currentColor"/><rect x="10" y="4" width="1" height="1" fill="currentColor"/><rect x="0" y="5" width="1" height="1" fill="currentColor"/><rect x="2" y="5" width="1" height="1" fill="currentColor"/><rect x="4" y="5" width="1" height="1" fill="currentColor"/><rect x="5" y="5" width="1" height="1" fill="currentColor"/><rect x="6" y="5" width="1" height="1" fill="currentColor"/><rect x="8" y="5" width="1" height="1" fill="currentColor"/><rect x="10" y="5" width="1" height="1" fill="currentColor"/><rect x="0" y="6" width="1" height="1" fill="currentColor"/><rect x="3" y="6" width="1" height="1" fill="currentColor"/><rect x="7" y="6" width="1" height="1" fill="currentColor"/><rect x="10" y="6" width="1" height="1" fill="currentColor"/></symbol>
<symbol id="ship" viewBox="0 0 11 8" preserveAspectRatio="xMidYMid meet"><rect x="5" y="0" width="1" height="1" fill="#39d353"/><rect x="5" y="1" width="1" height="1" fill="#39d353"/><rect x="4" y="2" width="1" height="1" fill="#39d353"/><rect x="5" y="2" width="1" height="1" fill="#39d353"/><rect x="6" y="2" width="1" height="1" fill="#39d353"/><rect x="3" y="3" width="1" height="1" fill="#39d353"/><rect x="4" y="3" width="1" height="1" fill="#39d353"/><rect x="5" y="3" width="1" height="1" fill="#39d353"/><rect x="6" y="3" width="1" height="1" fill="#39d353"/><rect x="7" y="3" width="1" height="1" fill="#39d353"/><rect x="1" y="4" width="1" height="1" fill="#39d353"/><rect x="2" y="4" width="1" height="1" fill="#39d353"/><rect x="3" y="4" width="1" height="1" fill="#39d353"/><rect x="4" y="4" width="1" height="1" fill="#39d353"/><rect x="5" y="4" width="1" height="1" fill="#39d353"/><rect x="6" y="4" width="1" height="1" fill="#39d353"/><rect x="7" y="4" width="1" height="1" fill="#39d353"/><rect x="8" y="4" width="1" height="1" fill="#39d353"/><rect x="9" y="4" width="1" height="1" fill="#39d353"/><rect x="0" y="5" width="1" height="1" fill="#39d353"/><rect x="1" y="5" width="1" height="1" fill="#39d353"/><rect x="2" y="5" width="1" height="1" fill="#39d353"/><rect x="3" y="5" width="1" height="1" fill="#39d353"/><rect x="4" y="5" width="1" height="1" fill="#39d353"/><rect x="5" y="5" width="1" height="1" fill="#39d353"/><rect x="6" y="5" width="1" height="1" fill="#39d353"/><rect x="7" y="5" width="1" height="1" fill="#39d353"/><rect x="8" y="5" width="1" height="1" fill="#39d353"/><rect x="9" y="5" width="1" height="1" fill="#39d353"/><rect x="10" y="5" width="1" height="1" fill="#39d353"/><rect x="0" y="6" width="1" height="1" fill="#39d353"/><rect x="4" y="6" width="1" height="1" fill="#39d353"/><rect x="5" y="6" width="1" height="1" fill="#39d353"/><rect x="6" y="6" width="1" height="1" fill="#39d353"/><rect x="10" y="6" width="1" height="1" fill="#39d353"/></symbol>
</defs>

<style>#marchg{animation:march 7.7299999999999995s linear infinite}@keyframes march{0%{transform:translateX(0)}6.46831%{transform:translateX(4px)}19.40492%{transform:translateX(-4px)}25.87322%{transform:translateX(0)}100%{transform:translateX(0)}}
#shipg{animation:shipm 7.7299999999999995s linear infinite}@keyframes shipm{0.00000%{transform:translate(750px,160px)}25.87322%{transform:translate(750px,160px)}25.87322%{transform:translate(750px,160px)}30.40103%{transform:translate(750px,160px)}30.41397%{transform:translate(750px,160px)}31.95343%{transform:translate(750px,160px)}36.48124%{transform:translate(750px,160px)}36.49418%{transform:translate(750px,160px)}38.03364%{transform:translate(750px,160px)}42.56145%{transform:translate(750px,160px)}42.57439%{transform:translate(750px,160px)}44.11384%{transform:translate(750px,160px)}48.64166%{transform:translate(750px,160px)}48.65459%{transform:translate(708px,160px)}50.19405%{transform:translate(708px,160px)}54.72186%{transform:translate(708px,160px)}54.73480%{transform:translate(722px,160px)}56.27426%{transform:translate(722px,160px)}60.80207%{transform:translate(722px,160px)}60.81501%{transform:translate(708px,160px)}62.35446%{transform:translate(708px,160px)}66.88228%{transform:translate(708px,160px)}66.89521%{transform:translate(708px,160px)}68.43467%{transform:translate(708px,160px)}72.96248%{transform:translate(708px,160px)}72.97542%{transform:translate(708px,160px)}74.51488%{transform:translate(708px,160px)}79.04269%{transform:translate(708px,160px)}79.05563%{transform:translate(708px,160px)}100.00000%{transform:translate(708px,160px)}}
#scan{animation:scanf 7.7299999999999995s linear infinite}@keyframes scanf{0%{opacity:.04}50%{opacity:.08}100%{opacity:.04}}
#c49x4{animation:kc49x4 7.7299999999999995s linear infinite}@keyframes kc49x4{0%{opacity:1}66.88228%{opacity:0.20}67.91721%{opacity:0.67}72.96248%{opacity:0.10}73.99741%{opacity:0.33}79.04269%{opacity:0.10}80.07762%{opacity:0}100%{opacity:0}}
#c49x5{animation:kc49x5 7.7299999999999995s linear infinite}@keyframes kc49x5{0%{opacity:1}54.72186%{opacity:0.30}55.75679%{opacity:0}100%{opacity:0}}
#c50x4{animation:kc50x4 7.7299999999999995s linear infinite}@keyframes kc50x4{0%{opacity:1}60.80207%{opacity:0.30}61.83700%{opacity:0}100%{opacity:0}}
#c52x6{animation:kc52x6 7.7299999999999995s linear infinite}@keyframes kc52x6{0%{opacity:1}30.40103%{opacity:0.22}31.43596%{opacity:0.75}36.48124%{opacity:0.15}37.51617%{opacity:0.50}42.56145%{opacity:0.07}43.59638%{opacity:0.25}48.64166%{opacity:0.07}49.67658%{opacity:0}100%{opacity:0}}
#b0{animation:bmb0 7.7299999999999995s linear infinite}@keyframes bmb0{0%,25.86028%{transform:translateY(0);opacity:0}25.87322%{transform:translateY(0);opacity:1}30.40103%{transform:translateY(-30px);opacity:1}30.41397%,100%{transform:translateY(-30px);opacity:0}}
#b1{animation:bmb1 7.7299999999999995s linear infinite}@keyframes bmb1{0%,31.94049%{transform:translateY(0);opacity:0}31.95343%{transform:translateY(0);opacity:1}36.48124%{transform:translateY(-30px);opacity:1}36.49418%,100%{transform:translateY(-30px);opacity:0}}
#b2{animation:bmb2 7.7299999999999995s linear infinite}@keyframes bmb2{0%,38.02070%{transform:translateY(0);opacity:0}38.03364%{transform:translateY(0);opacity:1}42.56145%{transform:translateY(-30px);opacity:1}42.57439%,100%{transform:translateY(-30px);opacity:0}}
#b3{animation:bmb3 7.7299999999999995s linear infinite}@keyframes bmb3{0%,44.10091%{transform:translateY(0);opacity:0}44.11384%{transform:translateY(0);opacity:1}48.64166%{transform:translateY(-30px);opacity:1}48.65459%,100%{transform:translateY(-30px);opacity:0}}
#b4{animation:bmb4 7.7299999999999995s linear infinite}@keyframes bmb4{0%,50.18111%{transform:translateY(0);opacity:0}50.19405%{transform:translateY(0);opacity:1}54.72186%{transform:translateY(-44px);opacity:1}54.73480%,100%{transform:translateY(-44px);opacity:0}}
#b5{animation:bmb5 7.7299999999999995s linear infinite}@keyframes bmb5{0%,56.26132%{transform:translateY(0);opacity:0}56.27426%{transform:translateY(0);opacity:1}60.80207%{transform:translateY(-58px);opacity:1}60.81501%,100%{transform:translateY(-58px);opacity:0}}
#b6{animation:bmb6 7.7299999999999995s linear infinite}@keyframes bmb6{0%,62.34153%{transform:translateY(0);opacity:0}62.35446%{transform:translateY(0);opacity:1}66.88228%{transform:translateY(-58px);opacity:1}66.89521%,100%{transform:translateY(-58px);opacity:0}}
#b7{animation:bmb7 7.7299999999999995s linear infinite}@keyframes bmb7{0%,68.42173%{transform:translateY(0);opacity:0}68.43467%{transform:translateY(0);opacity:1}72.96248%{transform:translateY(-58px);opacity:1}72.97542%,100%{transform:translateY(-58px);opacity:0}}
#b8{animation:bmb8 7.7299999999999995s linear infinite}@keyframes bmb8{0%,74.50194%{transform:translateY(0);opacity:0}74.51488%{transform:translateY(0);opacity:1}79.04269%{transform:translateY(-58px);opacity:1}79.05563%,100%{transform:translateY(-58px);opacity:0}}</style>
<text x="387" y="20" fill="#39d353" font-size="8" font-family="monospace" font-weight="bold" letter-spacing="1" text-anchor="middle">GIT-INVADERS</text><text x="758" y="20" fill="#39d353" font-size="8" font-family="monospace" font-weight="bold" letter-spacing="1" text-anchor="end">COMMITS: 9</text>
<rect x="16" y="36" width="12" height="12" fill="#161b22" rx="1"/><rect x="16" y="50" width="12" height="12" fill="#161b22" rx="1"/><rect x="16" y="64" width="12" height="12" fill="#161b22" rx="1"/><rect x="16" y="78" width="12" height="12" fill="#161b22" rx="1"/><rect x="16" y="92" width="12" height="12" fill="#161b22" rx="1"/><rect x="16" y="106" width="12" height="12" fill="#161b22" rx="1"/><rect x="16" y="120" width="12" height="12" fill="#161b22" rx="1"/><rect x="30" y="36" width="12" height="12" fill="#161b22" rx="1"/><rect x="30" y="50" width="12" height="12" fill="#161b22" rx="1"/><rect x="30" y="64" width="12" height="12" fill="#161b22" rx="1"/><rect x="30" y="78" width="12" height="12" fill="#161b22" rx="1"/><rect x="30" y="92" width="12" height="12" fill="#161b22" rx="1"/><rect x="30" y="106" width="12" height="12" fill="#161b22" rx="1"/><rect x="30" y="120" width="12" height="12" fill="#161b22" rx="1"/><rect x="44" y="36" width="12" height="12" fill="#161b22" rx="1"/><rect x="44" y="50" width="12" height="12" fill="#161b22" rx="1"/><rect x="44" y="64" width="12" height="12" fill="#161b22" rx="1"/><rect x="44" y="78" width="12" height="12" fill="#161b22" rx="1"/><rect x="44" y="92" width="12" height="12" fill="#161b22" rx="1"/><rect x="44" y="106" width="12" height="12" fill="#161b22" rx="1"/><rect x="44" y="120" width="12" height="12" fill="#161b22" rx="1"/><rect x="58" y="36" width="12" height="12" fill="#161b22" rx="1"/><rect x="58" y="50" width="12" height="12" fill="#161b22" rx="1"/><rect x="58" y="64" width="12" height="12" fill="#161b22" rx="1"/><rect x="58" y="78" width="12" height="12" fill="#161b22" rx="1"/><rect x="58" y="92" width="12" height="12" fill="#161b22" rx="1"/><rect x="58" y="106" width="12" height="12" fill="#161b22" rx="1"/><rect x="58" y="120" width="12" height="12" fill="#161b22" rx="1"/><rect x="72" y="36" width="12" height="12" fill="#161b22" rx="1"/><rect x="72" y="50" width="12" height="12" fill="#161b22" rx="1"/><rect x="72" y="64" width="12" height="12" fill="#161b22" rx="1"/><rect x="72" y="78" width="12" height="12" fill="#161b22" rx="1"/><rect x="72" y="92" width="12" height="12" fill="#161b22" rx="1"/><rect x="72" y="106" width="12" height="12" fill="#161b22" rx="1"/><rect x="72" y="120" width="12" height="12" fill="#161b22" rx="1"/><rect x="86" y="36" width="12" height="12" fill="#161b22" rx="1"/><rect x="86" y="50" width="12" height="12" fill="#161b22" rx="1"/><rect x="86" y="64" width="12" height="12" fill="#161b22" rx="1"/><rect x="86" y="78" width="12" height="12" fill="#161b22" rx="1"/><rect x="86" y="92" width="12" height="12" fill="#161b22" rx="1"/><rect x="86" y="106" width="12" height="12" fill="#161b22" rx="1"/><rect x="86" y="120" width="12" height="12" fill="#161b22" rx="1"/><rect x="100" y="36" width="12" height="12" fill="#161b22" rx="1"/><rect x="100" y="50" width="12" height="12" fill="#161b22" rx="1"/><rect x="100" y="64" width="12" height="12" fill="#161b22" rx="1"/><rect x="100" y="78" width="12" height="12" fill="#161b22" rx="1"/><rect x="100" y="92" width="12" height="12" fill="#161b22" rx="1"/><rect x="100" y="106" width="12" height="12" fill="#161b22" rx="1"/><rect x="100" y="120" width="12" height="12" fill="#161b22" rx="1"/><rect x="114" y="36" width="12" height="12" fill="#161b22" rx="1"/><rect x="114" y="50" width="12" height="12" fill="#161b22" rx="1"/><rect x="114" y="64" width="12" height="12" fill="#161b22" rx="1"/><rect x="114" y="78" width="12" height="12" fill="#161b22" rx="1"/><rect x="114" y="92" width="12" height="12" fill="#161b22" rx="1"/><rect x="114" y="106" width="12" height="12" fill="#161b22" rx="1"/><rect x="114" y="120" width="12" height="12" fill="#161b22" rx="1"/><rect x="128" y="36" width="12" height="12" fill="#161b22" rx="1"/><rect x="128" y="50" width="12" height="12" fill="#161b22" rx="1"/><rect x="128" y="64" width="12" height="12" fill="#161b22" rx="1"/><rect x="128" y="78" width="12" height="12" fill="#161b22" rx="1"/><rect x="128" y="92" width="12" height="12" fill="#161b22" rx="1"/><rect x="128" y="106" width="12" height="12" fill="#161b22" rx="1"/><rect x="128" y="120" width="12" height="12" fill="#161b22" rx="1"/><rect x="142" y="36" width="12" height="12" fill="#161b22" rx="1"/><rect x="142" y="50" width="12" height="12" fill="#161b22" rx="1"/><rect x="142" y="64" width="12" height="12" fill="#161b22" rx="1"/><rect x="142" y="78" width="12" height="12" fill="#161b22" rx="1"/><rect x="142" y="92" width="12" height="12" fill="#161b22" rx="1"/><rect x="142" y="106" width="12" height="12" fill="#161b22" rx="1"/><rect x="142" y="120" width="12" height="12" fill="#161b22" rx="1"/><rect x="156" y="36" width="12" height="12" fill="#161b22" rx="1"/><rect x="156" y="50" width="12" height="12" fill="#161b22" rx="1"/><rect x="156" y="64" width="12" height="12" fill="#161b22" rx="1"/><rect x="156" y="78" width="12" height="12" fill="#161b22" rx="1"/><rect x="156" y="92" width="12" height="12" fill="#161b22" rx="1"/><rect x="156" y="106" width="12" height="12" fill="#161b22" rx="1"/><rect x="156" y="120" width="12" height="12" fill="#161b22" rx="1"/><rect x="170" y="36" width="12" height="12" fill="#161b22" rx="1"/><rect x="170" y="50" width="12" height="12" fill="#161b22" rx="1"/><rect x="170" y="64" width="12" height="12" fill="#161b22" rx="1"/><rect x="170" y="78" width="12" height="12" fill="#161b22" rx="1"/><rect x="170" y="92" width="12" height="12" fill="#161b22" rx="1"/><rect x="170" y="106" width="12" height="12" fill="#161b22" rx="1"/><rect x="170" y="120" width="12" height="12" fill="#161b22" rx="1"/><rect x="184" y="36" width="12" height="12" fill="#161b22" rx="1"/><rect x="184" y="50" width="12" height="12" fill="#161b22" rx="1"/><rect x="184" y="64" width="12" height="12" fill="#161b22" rx="1"/><rect x="184" y="78" width="12" height="12" fill="#161b22" rx="1"/><rect x="184" y="92" width="12" height="12" fill="#161b22" rx="1"/><rect x="184" y="106" width="12" height="12" fill="#161b22" rx="1"/><rect x="184" y="120" width="12" height="12" fill="#161b22" rx="1"/><rect x="198" y="36" width="12" height="12" fill="#161b22" rx="1"/><rect x="198" y="50" width="12" height="12" fill="#161b22" rx="1"/><rect x="198" y="64" width="12" height="12" fill="#161b22" rx="1"/><rect x="198" y="78" width="12" height="12" fill="#161b22" rx="1"/><rect x="198" y="92" width="12" height="12" fill="#161b22" rx="1"/><rect x="198" y="106" width="12" height="12" fill="#161b22" rx="1"/><rect x="198" y="120" width="12" height="12" fill="#161b22" rx="1"/><rect x="212" y="36" width="12" height="12" fill="#161b22" rx="1"/><rect x="212" y="50" width="12" height="12" fill="#161b22" rx="1"/><rect x="212" y="64" width="12" height="12" fill="#161b22" rx="1"/><rect x="212" y="78" width="12" height="12" fill="#161b22" rx="1"/><rect x="212" y="92" width="12" height="12" fill="#161b22" rx="1"/><rect x="212" y="106" width="12" height="12" fill="#161b22" rx="1"/><rect x="212" y="120" width="12" height="12" fill="#161b22" rx="1"/><rect x="226" y="36" width="12" height="12" fill="#161b22" rx="1"/><rect x="226" y="50" width="12" height="12" fill="#161b22" rx="1"/><rect x="226" y="64" width="12" height="12" fill="#161b22" rx="1"/><rect x="226" y="78" width="12" height="12" fill="#161b22" rx="1"/><rect x="226" y="92" width="12" height="12" fill="#161b22" rx="1"/><rect x="226" y="106" width="12" height="12" fill="#161b22" rx="1"/><rect x="226" y="120" width="12" height="12" fill="#161b22" rx="1"/><rect x="240" y="36" width="12" height="12" fill="#161b22" rx="1"/><rect x="240" y="50" width="12" height="12" fill="#161b22" rx="1"/><rect x="240" y="64" width="12" height="12" fill="#161b22" rx="1"/><rect x="240" y="78" width="12" height="12" fill="#161b22" rx="1"/><rect x="240" y="92" width="12" height="12" fill="#161b22" rx="1"/><rect x="240" y="106" width="12" height="12" fill="#161b22" rx="1"/><rect x="240" y="120" width="12" height="12" fill="#161b22" rx="1"/><rect x="254" y="36" width="12" height="12" fill="#161b22" rx="1"/><rect x="254" y="50" width="12" height="12" fill="#161b22" rx="1"/><rect x="254" y="64" width="12" height="12" fill="#161b22" rx="1"/><rect x="254" y="78" width="12" height="12" fill="#161b22" rx="1"/><rect x="254" y="92" width="12" height="12" fill="#161b22" rx="1"/><rect x="254" y="106" width="12" height="12" fill="#161b22" rx="1"/><rect x="254" y="120" width="12" height="12" fill="#161b22" rx="1"/><rect x="268" y="36" width="12" height="12" fill="#161b22" rx="1"/><rect x="268" y="50" width="12" height="12" fill="#161b22" rx="1"/><rect x="268" y="64" width="12" height="12" fill="#161b22" rx="1"/><rect x="268" y="78" width="12" height="12" fill="#161b22" rx="1"/><rect x="268" y="92" width="12" height="12" fill="#161b22" rx="1"/><rect x="268" y="106" width="12" height="12" fill="#161b22" rx="1"/><rect x="268" y="120" width="12" height="12" fill="#161b22" rx="1"/><rect x="282" y="36" width="12" height="12" fill="#161b22" rx="1"/><rect x="282" y="50" width="12" height="12" fill="#161b22" rx="1"/><rect x="282" y="64" width="12" height="12" fill="#161b22" rx="1"/><rect x="282" y="78" width="12" height="12" fill="#161b22" rx="1"/><rect x="282" y="92" width="12" height="12" fill="#161b22" rx="1"/><rect x="282" y="106" width="12" height="12" fill="#161b22" rx="1"/><rect x="282" y="120" width="12" height="12" fill="#161b22" rx="1"/><rect x="296" y="36" width="12" height="12" fill="#161b22" rx="1"/><rect x="296" y="50" width="12" height="12" fill="#161b22" rx="1"/><rect x="296" y="64" width="12" height="12" fill="#161b22" rx="1"/><rect x="296" y="78" width="12" height="12" fill="#161b22" rx="1"/><rect x="296" y="92" width="12" height="12" fill="#161b22" rx="1"/><rect x="296" y="106" width="12" height="12" fill="#161b22" rx="1"/><rect x="296" y="120" width="12" height="12" fill="#161b22" rx="1"/><rect x="310" y="36" width="12" height="12" fill="#161b22" rx="1"/><rect x="310" y="50" width="12" height="12" fill="#161b22" rx="1"/><rect x="310" y="64" width="12" height="12" fill="#161b22" rx="1"/><rect x="310" y="78" width="12" height="12" fill="#161b22" rx="1"/><rect x="310" y="92" width="12" height="12" fill="#161b22" rx="1"/><rect x="310" y="106" width="12" height="12" fill="#161b22" rx="1"/><rect x="310" y="120" width="12" height="12" fill="#161b22" rx="1"/><rect x="324" y="36" width="12" height="12" fill="#161b22" rx="1"/><rect x="324" y="50" width="12" height="12" fill="#161b22" rx="1"/><rect x="324" y="64" width="12" height="12" fill="#161b22" rx="1"/><rect x="324" y="78" width="12" height="12" fill="#161b22" rx="1"/><rect x="324" y="92" width="12" height="12" fill="#161b22" rx="1"/><rect x="324" y="106" width="12" height="12" fill="#161b22" rx="1"/><rect x="324" y="120" width="12" height="12" fill="#161b22" rx="1"/><rect x="338" y="36" width="12" height="12" fill="#161b22" rx="1"/><rect x="338" y="50" width="12" height="12" fill="#161b22" rx="1"/><rect x="338" y="64" width="12" height="12" fill="#161b22" rx="1"/><rect x="338" y="78" width="12" height="12" fill="#161b22" rx="1"/><rect x="338" y="92" width="12" height="12" fill="#161b22" rx="1"/><rect x="338" y="106" width="12" height="12" fill="#161b22" rx="1"/><rect x="338" y="120" width="12" height="12" fill="#161b22" rx="1"/><rect x="352" y="36" width="12" height="12" fill="#161b22" rx="1"/><rect x="352" y="50" width="12" height="12" fill="#161b22" rx="1"/><rect x="352" y="64" width="12" height="12" fill="#161b22" rx="1"/><rect x="352" y="78" width="12" height="12" fill="#161b22" rx="1"/><rect x="352" y="92" width="12" height="12" fill="#161b22" rx="1"/><rect x="352" y="106" width="12" height="12" fill="#161b22" rx="1"/><rect x="352" y="120" width="12" height="12" fill="#161b22" rx="1"/><rect x="366" y="36" width="12" height="12" fill="#161b22" rx="1"/><rect x="366" y="50" width="12" height="12" fill="#161b22" rx="1"/><rect x="366" y="64" width="12" height="12" fill="#161b22" rx="1"/><rect x="366" y="78" width="12" height="12" fill="#161b22" rx="1"/><rect x="366" y="92" width="12" height="12" fill="#161b22" rx="1"/><rect x="366" y="106" width="12" height="12" fill="#161b22" rx="1"/><rect x="366" y="120" width="12" height="12" fill="#161b22" rx="1"/><rect x="380" y="36" width="12" height="12" fill="#161b22" rx="1"/><rect x="380" y="50" width="12" height="12" fill="#161b22" rx="1"/><rect x="380" y="64" width="12" height="12" fill="#161b22" rx="1"/><rect x="380" y="78" width="12" height="12" fill="#161b22" rx="1"/><rect x="380" y="92" width="12" height="12" fill="#161b22" rx="1"/><rect x="380" y="106" width="12" height="12" fill="#161b22" rx="1"/><rect x="380" y="120" width="12" height="12" fill="#161b22" rx="1"/><rect x="394" y="36" width="12" height="12" fill="#161b22" rx="1"/><rect x="394" y="50" width="12" height="12" fill="#161b22" rx="1"/><rect x="394" y="64" width="12" height="12" fill="#161b22" rx="1"/><rect x="394" y="78" width="12" height="12" fill="#161b22" rx="1"/><rect x="394" y="92" width="12" height="12" fill="#161b22" rx="1"/><rect x="394" y="106" width="12" height="12" fill="#161b22" rx="1"/><rect x="394" y="120" width="12" height="12" fill="#161b22" rx="1"/><rect x="408" y="36" width="12" height="12" fill="#161b22" rx="1"/><rect x="408" y="50" width="12" height="12" fill="#161b22" rx="1"/><rect x="408" y="64" width="12" height="12" fill="#161b22" rx="1"/><rect x="408" y="78" width="12" height="12" fill="#161b22" rx="1"/><rect x="408" y="92" width="12" height="12" fill="#161b22" rx="1"/><rect x="408" y="106" width="12" height="12" fill="#161b22" rx="1"/><rect x="408" y="120" width="12" height="12" fill="#161b22" rx="1"/><rect x="422" y="36" width="12" height="12" fill="#161b22" rx="1"/><rect x="422" y="50" width="12" height="12" fill="#161b22" rx="1"/><rect x="422" y="64" width="12" height="12" fill="#161b22" rx="1"/><rect x="422" y="78" width="12" height="12" fill="#161b22" rx="1"/><rect x="422" y="92" width="12" height="12" fill="#161b22" rx="1"/><rect x="422" y="106" width="12" height="12" fill="#161b22" rx="1"/><rect x="422" y="120" width="12" height="12" fill="#161b22" rx="1"/><rect x="436" y="36" width="12" height="12" fill="#161b22" rx="1"/><rect x="436" y="50" width="12" height="12" fill="#161b22" rx="1"/><rect x="436" y="64" width="12" height="12" fill="#161b22" rx="1"/><rect x="436" y="78" width="12" height="12" fill="#161b22" rx="1"/><rect x="436" y="92" width="12" height="12" fill="#161b22" rx="1"/><rect x="436" y="106" width="12" height="12" fill="#161b22" rx="1"/><rect x="436" y="120" width="12" height="12" fill="#161b22" rx="1"/><rect x="450" y="36" width="12" height="12" fill="#161b22" rx="1"/><rect x="450" y="50" width="12" height="12" fill="#161b22" rx="1"/><rect x="450" y="64" width="12" height="12" fill="#161b22" rx="1"/><rect x="450" y="78" width="12" height="12" fill="#161b22" rx="1"/><rect x="450" y="92" width="12" height="12" fill="#161b22" rx="1"/><rect x="450" y="106" width="12" height="12" fill="#161b22" rx="1"/><rect x="450" y="120" width="12" height="12" fill="#161b22" rx="1"/><rect x="464" y="36" width="12" height="12" fill="#161b22" rx="1"/><rect x="464" y="50" width="12" height="12" fill="#161b22" rx="1"/><rect x="464" y="64" width="12" height="12" fill="#161b22" rx="1"/><rect x="464" y="78" width="12" height="12" fill="#161b22" rx="1"/><rect x="464" y="92" width="12" height="12" fill="#161b22" rx="1"/><rect x="464" y="106" width="12" height="12" fill="#161b22" rx="1"/><rect x="464" y="120" width="12" height="12" fill="#161b22" rx="1"/><rect x="478" y="36" width="12" height="12" fill="#161b22" rx="1"/><rect x="478" y="50" width="12" height="12" fill="#161b22" rx="1"/><rect x="478" y="64" width="12" height="12" fill="#161b22" rx="1"/><rect x="478" y="78" width="12" height="12" fill="#161b22" rx="1"/><rect x="478" y="92" width="12" height="12" fill="#161b22" rx="1"/><rect x="478" y="106" width="12" height="12" fill="#161b22" rx="1"/><rect x="478" y="120" width="12" height="12" fill="#161b22" rx="1"/><rect x="492" y="36" width="12" height="12" fill="#161b22" rx="1"/><rect x="492" y="50" width="12" height="12" fill="#161b22" rx="1"/><rect x="492" y="64" width="12" height="12" fill="#161b22" rx="1"/><rect x="492" y="78" width="12" height="12" fill="#161b22" rx="1"/><rect x="492" y="92" width="12" height="12" fill="#161b22" rx="1"/><rect x="492" y="106" width="12" height="12" fill="#161b22" rx="1"/><rect x="492" y="120" width="12" height="12" fill="#161b22" rx="1"/><rect x="506" y="36" width="12" height="12" fill="#161b22" rx="1"/><rect x="506" y="50" width="12" height="12" fill="#161b22" rx="1"/><rect x="506" y="64" width="12" height="12" fill="#161b22" rx="1"/><rect x="506" y="78" width="12" height="12" fill="#161b22" rx="1"/><rect x="506" y="92" width="12" height="12" fill="#161b22" rx="1"/><rect x="506" y="106" width="12" height="12" fill="#161b22" rx="1"/><rect x="506" y="120" width="12" height="12" fill="#161b22" rx="1"/><rect x="520" y="36" width="12" height="12" fill="#161b22" rx="1"/><rect x="520" y="50" width="12" height="12" fill="#161b22" rx="1"/><rect x="520" y="64" width="12" height="12" fill="#161b22" rx="1"/><rect x="520" y="78" width="12" height="12" fill="#161b22" rx="1"/><rect x="520" y="92" width="12" height="12" fill="#161b22" rx="1"/><rect x="520" y="106" width="12" height="12" fill="#161b22" rx="1"/><rect x="520" y="120" width="12" height="12" fill="#161b22" rx="1"/><rect x="534" y="36" width="12" height="12" fill="#161b22" rx="1"/><rect x="534" y="50" width="12" height="12" fill="#161b22" rx="1"/><rect x="534" y="64" width="12" height="12" fill="#161b22" rx="1"/><rect x="534" y="78" width="12" height="12" fill="#161b22" rx="1"/><rect x="534" y="92" width="12" height="12" fill="#161b22" rx="1"/><rect x="534" y="106" width="12" height="12" fill="#161b22" rx="1"/><rect x="534" y="120" width="12" height="12" fill="#161b22" rx="1"/><rect x="548" y="36" width="12" height="12" fill="#161b22" rx="1"/><rect x="548" y="50" width="12" height="12" fill="#161b22" rx="1"/><rect x="548" y="64" width="12" height="12" fill="#161b22" rx="1"/><rect x="548" y="78" width="12" height="12" fill="#161b22" rx="1"/><rect x="548" y="92" width="12" height="12" fill="#161b22" rx="1"/><rect x="548" y="106" width="12" height="12" fill="#161b22" rx="1"/><rect x="548" y="120" width="12" height="12" fill="#161b22" rx="1"/><rect x="562" y="36" width="12" height="12" fill="#161b22" rx="1"/><rect x="562" y="50" width="12" height="12" fill="#161b22" rx="1"/><rect x="562" y="64" width="12" height="12" fill="#161b22" rx="1"/><rect x="562" y="78" width="12" height="12" fill="#161b22" rx="1"/><rect x="562" y="92" width="12" height="12" fill="#161b22" rx="1"/><rect x="562" y="106" width="12" height="12" fill="#161b22" rx="1"/><rect x="562" y="120" width="12" height="12" fill="#161b22" rx="1"/><rect x="576" y="36" width="12" height="12" fill="#161b22" rx="1"/><rect x="576" y="50" width="12" height="12" fill="#161b22" rx="1"/><rect x="576" y="64" width="12" height="12" fill="#161b22" rx="1"/><rect x="576" y="78" width="12" height="12" fill="#161b22" rx="1"/><rect x="576" y="92" width="12" height="12" fill="#161b22" rx="1"/><rect x="576" y="106" width="12" height="12" fill="#161b22" rx="1"/><rect x="576" y="120" width="12" height="12" fill="#161b22" rx="1"/><rect x="590" y="36" width="12" height="12" fill="#161b22" rx="1"/><rect x="590" y="50" width="12" height="12" fill="#161b22" rx="1"/><rect x="590" y="64" width="12" height="12" fill="#161b22" rx="1"/><rect x="590" y="78" width="12" height="12" fill="#161b22" rx="1"/><rect x="590" y="92" width="12" height="12" fill="#161b22" rx="1"/><rect x="590" y="106" width="12" height="12" fill="#161b22" rx="1"/><rect x="590" y="120" width="12" height="12" fill="#161b22" rx="1"/><rect x="604" y="36" width="12" height="12" fill="#161b22" rx="1"/><rect x="604" y="50" width="12" height="12" fill="#161b22" rx="1"/><rect x="604" y="64" width="12" height="12" fill="#161b22" rx="1"/><rect x="604" y="78" width="12" height="12" fill="#161b22" rx="1"/><rect x="604" y="92" width="12" height="12" fill="#161b22" rx="1"/><rect x="604" y="106" width="12" height="12" fill="#161b22" rx="1"/><rect x="604" y="120" width="12" height="12" fill="#161b22" rx="1"/><rect x="618" y="36" width="12" height="12" fill="#161b22" rx="1"/><rect x="618" y="50" width="12" height="12" fill="#161b22" rx="1"/><rect x="618" y="64" width="12" height="12" fill="#161b22" rx="1"/><rect x="618" y="78" width="12" height="12" fill="#161b22" rx="1"/><rect x="618" y="92" width="12" height="12" fill="#161b22" rx="1"/><rect x="618" y="106" width="12" height="12" fill="#161b22" rx="1"/><rect x="618" y="120" width="12" height="12" fill="#161b22" rx="1"/><rect x="632" y="36" width="12" height="12" fill="#161b22" rx="1"/><rect x="632" y="50" width="12" height="12" fill="#161b22" rx="1"/><rect x="632" y="64" width="12" height="12" fill="#161b22" rx="1"/><rect x="632" y="78" width="12" height="12" fill="#161b22" rx="1"/><rect x="632" y="92" width="12" height="12" fill="#161b22" rx="1"/><rect x="632" y="106" width="12" height="12" fill="#161b22" rx="1"/><rect x="632" y="120" width="12" height="12" fill="#161b22" rx="1"/><rect x="646" y="36" width="12" height="12" fill="#161b22" rx="1"/><rect x="646" y="50" width="12" height="12" fill="#161b22" rx="1"/><rect x="646" y="64" width="12" height="12" fill="#161b22" rx="1"/><rect x="646" y="78" width="12" height="12" fill="#161b22" rx="1"/><rect x="646" y="92" width="12" height="12" fill="#161b22" rx="1"/><rect x="646" y="106" width="12" height="12" fill="#161b22" rx="1"/><rect x="646" y="120" width="12" height="12" fill="#161b22" rx="1"/><rect x="660" y="36" width="12" height="12" fill="#161b22" rx="1"/><rect x="660" y="50" width="12" height="12" fill="#161b22" rx="1"/><rect x="660" y="64" width="12" height="12" fill="#161b22" rx="1"/><rect x="660" y="78" width="12" height="12" fill="#161b22" rx="1"/><rect x="660" y="92" width="12" height="12" fill="#161b22" rx="1"/><rect x="660" y="106" width="12" height="12" fill="#161b22" rx="1"/><rect x="660" y="120" width="12" height="12" fill="#161b22" rx="1"/><rect x="674" y="36" width="12" height="12" fill="#161b22" rx="1"/><rect x="674" y="50" width="12" height="12" fill="#161b22" rx="1"/><rect x="674" y="64" width="12" height="12" fill="#161b22" rx="1"/><rect x="674" y="78" width="12" height="12" fill="#161b22" rx="1"/><rect x="674" y="92" width="12" height="12" fill="#161b22" rx="1"/><rect x="674" y="106" width="12" height="12" fill="#161b22" rx="1"/><rect x="674" y="120" width="12" height="12" fill="#161b22" rx="1"/><rect x="688" y="36" width="12" height="12" fill="#161b22" rx="1"/><rect x="688" y="50" width="12" height="12" fill="#161b22" rx="1"/><rect x="688" y="64" width="12" height="12" fill="#161b22" rx="1"/><rect x="688" y="78" width="12" height="12" fill="#161b22" rx="1"/><rect x="688" y="92" width="12" height="12" fill="#161b22" rx="1"/><rect x="688" y="106" width="12" height="12" fill="#161b22" rx="1"/><rect x="688" y="120" width="12" height="12" fill="#161b22" rx="1"/><rect x="702" y="36" width="12" height="12" fill="#161b22" rx="1"/><rect x="702" y="50" width="12" height="12" fill="#161b22" rx="1"/><rect x="702" y="64" width="12" height="12" fill="#161b22" rx="1"/><rect x="702" y="78" width="12" height="12" fill="#161b22" rx="1"/><rect x="702" y="92" width="12" height="12" fill="#161b22" rx="1"/><rect x="702" y="106" width="12" height="12" fill="#161b22" rx="1"/><rect x="702" y="120" width="12" height="12" fill="#161b22" rx="1"/><rect x="716" y="36" width="12" height="12" fill="#161b22" rx="1"/><rect x="716" y="50" width="12" height="12" fill="#161b22" rx="1"/><rect x="716" y="64" width="12" height="12" fill="#161b22" rx="1"/><rect x="716" y="78" width="12" height="12" fill="#161b22" rx="1"/><rect x="716" y="92" width="12" height="12" fill="#161b22" rx="1"/><rect x="716" y="106" width="12" height="12" fill="#161b22" rx="1"/><rect x="716" y="120" width="12" height="12" fill="#161b22" rx="1"/><rect x="730" y="36" width="12" height="12" fill="#161b22" rx="1"/><rect x="730" y="50" width="12" height="12" fill="#161b22" rx="1"/><rect x="730" y="64" width="12" height="12" fill="#161b22" rx="1"/><rect x="730" y="78" width="12" height="12" fill="#161b22" rx="1"/><rect x="730" y="92" width="12" height="12" fill="#161b22" rx="1"/><rect x="730" y="106" width="12" height="12" fill="#161b22" rx="1"/><rect x="730" y="120" width="12" height="12" fill="#161b22" rx="1"/><rect x="744" y="36" width="12" height="12" fill="#161b22" rx="1"/><rect x="744" y="50" width="12" height="12" fill="#161b22" rx="1"/><rect x="744" y="64" width="12" height="12" fill="#161b22" rx="1"/><rect x="744" y="78" width="12" height="12" fill="#161b22" rx="1"/><rect x="744" y="92" width="12" height="12" fill="#161b22" rx="1"/><rect x="744" y="106" width="12" height="12" fill="#161b22" rx="1"/><rect x="744" y="120" width="12" height="12" fill="#161b22" rx="1"/>
<g id="marchg"><g id="c49x4" color="#3ac5d4"><rect x="702" y="92" width="12" height="12" fill="#3ac5d4" opacity="0.15" rx="1"/><use href="#a3" x="702" y="92" width="12" height="12"/></g><g id="c49x5" color="#4eb0f1"><rect x="702" y="106" width="12" height="12" fill="#4eb0f1" opacity="0.15" rx="1"/><use href="#a1" x="702" y="106" width="12" height="12"/></g><g id="c50x4" color="#4eb0f1"><rect x="716" y="92" width="12" height="12" fill="#4eb0f1" opacity="0.15" rx="1"/><use href="#a1" x="716" y="92" width="12" height="12"/></g><g id="c52x6" color="#30cfc6"><rect x="744" y="120" width="12" height="12" fill="#30cfc6" opacity="0.15" rx="1"/><use href="#a4" x="744" y="120" width="12" height="12"/></g></g>
<g clip-path="url(#bulletclip)"><rect id="b0" x="749" y="156" width="2" height="5" fill="#ffffff" opacity="0" rx="1"/><rect id="b1" x="749" y="156" width="2" height="5" fill="#ffffff" opacity="0" rx="1"/><rect id="b2" x="749" y="156" width="2" height="5" fill="#ffffff" opacity="0" rx="1"/><rect id="b3" x="749" y="156" width="2" height="5" fill="#ffffff" opacity="0" rx="1"/><rect id="b4" x="707" y="156" width="2" height="5" fill="#ffffff" opacity="0" rx="1"/><rect id="b5" x="721" y="156" width="2" height="5" fill="#ffffff" opacity="0" rx="1"/><rect id="b6" x="707" y="156" width="2" height="5" fill="#ffffff" opacity="0" rx="1"/><rect id="b7" x="707" y="156" width="2" height="5" fill="#ffffff" opacity="0" rx="1"/><rect id="b8" x="707" y="156" width="2" height="5" fill="#ffffff" opacity="0" rx="1"/></g>
<line x1="16" y1="174" x2="758" y2="174" stroke="#39d353" stroke-width="1" opacity=".5"/>
<g id="shipg"><use href="#ship" x="-7" y="-9" width="14" height="10"/></g>
<rect id="scan" width="774" height="202" fill="none" stroke="#39d353" stroke-width="2" opacity=".04" pointer-events="none"/>
</svg>